<svg width="10" height="10" viewBox="0 0 10 10" fill="none" xmlns="http://www.w3.org/2000/svg">
<path d="M8.86795 3.44825L6.38846 3.08789L5.28006 0.840824C5.24979 0.779301 5.19998 0.729496 5.13846 0.699222C4.98416 0.62305 4.79666 0.686527 4.71952 0.840824L3.61112 3.08789L1.13163 3.44825C1.06327 3.45801 1.00077 3.49024 0.952914 3.53907C0.895065 3.59853 0.863187 3.67852 0.864285 3.76147C0.865384 3.84442 0.899369 3.92354 0.958774 3.98145L2.75272 5.73047L2.32889 8.2002C2.31895 8.25765 2.32531 8.31674 2.34724 8.37076C2.36918 8.42478 2.40581 8.47158 2.45298 8.50584C2.50016 8.5401 2.55599 8.56046 2.61414 8.56461C2.6723 8.56876 2.73046 8.55652 2.78202 8.5293L4.99979 7.36329L7.21756 8.5293C7.27811 8.56153 7.34842 8.57227 7.41581 8.56055C7.58573 8.53125 7.69999 8.37012 7.67069 8.2002L7.24686 5.73047L9.0408 3.98145C9.08963 3.9336 9.12186 3.8711 9.13163 3.80274C9.15799 3.63184 9.03885 3.47364 8.86795 3.44825Z" fill="url(#paint0_linear_1287_529)"/>
<defs>
<linearGradient id="paint0_linear_1287_529" x1="4.99977" y1="0.666992" x2="4.99977" y2="8.5654" gradientUnits="userSpaceOnUse">
<stop stop-color="#E4C79A"/>
<stop offset="1" stop-color="#D27B4A"/>
</linearGradient>
</defs>
</svg>
