<svg width="66" height="66" viewBox="0 0 66 66" fill="none" xmlns="http://www.w3.org/2000/svg">
<g clip-path="url(#clip0_1287_851)">
<path d="M43.8749 21.1578C55.926 20.9737 65.7621 30.4587 65.9954 42.509C66.0297 44.2782 65.8528 46.0003 65.4885 47.6521C64.8716 50.449 64.5049 53.2951 64.5049 56.1593V61.6955C64.5049 62.5437 63.8173 63.2313 62.9691 63.2313H57.4328C54.5687 63.2313 51.7225 63.598 48.9257 64.215C47.274 64.5793 45.5519 64.7561 43.7827 64.7218C31.7326 64.4886 22.2475 54.6529 22.4313 42.6019C22.6106 30.8393 32.1123 21.3375 43.8749 21.1578Z" fill="url(#paint0_linear_1287_851)"/>
<path d="M43.8749 21.1578C55.926 20.9737 65.7621 30.4587 65.9954 42.509C66.0297 44.2782 65.8528 46.0003 65.4885 47.6521C64.8716 50.449 64.5049 53.2951 64.5049 56.1593V61.6955C64.5049 62.5437 63.8173 63.2313 62.9691 63.2313H57.4328C54.5687 63.2313 51.7225 63.598 48.9257 64.215C47.274 64.5793 45.5519 64.7561 43.7827 64.7218C31.7326 64.4886 22.2475 54.6529 22.4313 42.6019C22.6106 30.8393 32.1123 21.3375 43.8749 21.1578Z" fill="url(#paint1_linear_1287_851)"/>
<path d="M26.954 1.27738C12.2724 1.05308 0.28944 12.6083 0.00507365 27.2889C-0.036563 29.4441 0.178839 31.5423 0.622791 33.5545C1.37431 36.9618 1.8211 40.4292 1.8211 43.9186V50.6632C1.8211 51.6965 2.65873 52.5343 3.69217 52.5343H10.4368C13.926 52.5343 17.3935 52.9811 20.8008 53.7326C22.8131 54.1764 24.9111 54.3919 27.0663 54.3502C41.7466 54.0659 53.3019 42.0834 53.0781 27.402C52.8595 13.0719 41.284 1.49613 26.954 1.27738Z" fill="url(#paint2_linear_1287_851)"/>
<path d="M17.0408 26.3921C16.2911 25.5955 15.2299 25.0952 14.0494 25.0952C11.779 25.0952 9.93848 26.9357 9.93848 29.2062C9.93848 30.3865 10.4386 31.4477 11.2354 32.1975L20.1034 41.0655C20.8532 41.8621 21.9144 42.3624 23.0948 42.3624C25.3652 42.3624 27.2057 40.5219 27.2057 38.2515C27.2057 37.0711 26.7054 36.0099 25.9088 35.2601L17.0408 26.3921Z" fill="url(#paint3_linear_1287_851)"/>
<path d="M14.0494 33.3165C16.3198 33.3165 18.1604 31.476 18.1604 29.2056C18.1604 26.9351 16.3198 25.0946 14.0494 25.0946C11.779 25.0946 9.93848 26.9351 9.93848 29.2056C9.93848 31.476 11.779 33.3165 14.0494 33.3165Z" fill="white"/>
<path d="M28.6668 26.3921C27.9171 25.5955 26.8559 25.0952 25.6754 25.0952C23.405 25.0952 21.5645 26.9357 21.5645 29.2062C21.5645 30.3865 22.0646 31.4477 22.8614 32.1975L31.7293 41.0655C32.4792 41.8621 33.5403 42.3624 34.7207 42.3624C36.9911 42.3624 38.8317 40.5219 38.8317 38.2515C38.8317 37.0711 38.3314 36.0099 37.5347 35.2601L28.6668 26.3921Z" fill="url(#paint4_linear_1287_851)"/>
<path d="M25.6754 33.3165C27.9458 33.3165 29.7863 31.476 29.7863 29.2056C29.7863 26.9351 27.9458 25.0946 25.6754 25.0946C23.405 25.0946 21.5645 26.9351 21.5645 29.2056C21.5645 31.476 23.405 33.3165 25.6754 33.3165Z" fill="white"/>
<path d="M40.2928 26.3921C39.543 25.5955 38.4819 25.0952 37.3014 25.0952C35.0309 25.0952 33.1904 26.9357 33.1904 29.2062C33.1904 30.3865 33.6907 31.4477 34.4874 32.1975L43.3553 41.0655C44.1052 41.8621 45.1663 42.3624 46.3467 42.3624C48.6171 42.3624 50.4577 40.5219 50.4577 38.2515C50.4577 37.0711 49.9574 36.0099 49.1607 35.2601L40.2928 26.3921Z" fill="url(#paint5_linear_1287_851)"/>
<path d="M37.3014 33.3165C39.5718 33.3165 41.4123 31.476 41.4123 29.2056C41.4123 26.9351 39.5718 25.0946 37.3014 25.0946C35.031 25.0946 33.1904 26.9351 33.1904 29.2056C33.1904 31.476 35.031 33.3165 37.3014 33.3165Z" fill="white"/>
</g>
<defs>
<linearGradient id="paint0_linear_1287_851" x1="39.8165" y1="38.5443" x2="71.8011" y2="70.529" gradientUnits="userSpaceOnUse">
<stop stop-color="#A7F3CE"/>
<stop offset="1" stop-color="#61DB99"/>
</linearGradient>
<linearGradient id="paint1_linear_1287_851" x1="50.2866" y1="49.0138" x2="36.7012" y2="35.4298" gradientUnits="userSpaceOnUse">
<stop stop-color="#61DB99" stop-opacity="0"/>
<stop offset="1" stop-color="#009E74"/>
</linearGradient>
<linearGradient id="paint2_linear_1287_851" x1="16.8441" y1="23.524" x2="50.6133" y2="57.2932" gradientUnits="userSpaceOnUse">
<stop stop-color="#62E1FB"/>
<stop offset="1" stop-color="#00A2F3"/>
</linearGradient>
<linearGradient id="paint3_linear_1287_851" x1="23.1942" y1="38.3518" x2="5.41428" y2="20.5723" gradientUnits="userSpaceOnUse">
<stop stop-color="#00A2F3" stop-opacity="0"/>
<stop offset="1" stop-color="#0075CD"/>
</linearGradient>
<linearGradient id="paint4_linear_1287_851" x1="34.8194" y1="38.3514" x2="17.04" y2="20.5719" gradientUnits="userSpaceOnUse">
<stop stop-color="#00A2F3" stop-opacity="0"/>
<stop offset="1" stop-color="#0075CD"/>
</linearGradient>
<linearGradient id="paint5_linear_1287_851" x1="46.4454" y1="38.3516" x2="28.6659" y2="20.5721" gradientUnits="userSpaceOnUse">
<stop stop-color="#00A2F3" stop-opacity="0"/>
<stop offset="1" stop-color="#0075CD"/>
</linearGradient>
<clipPath id="clip0_1287_851">
<rect width="66" height="66" fill="white"/>
</clipPath>
</defs>
</svg>
