<svg width="30" height="30" viewBox="0 0 30 30" fill="none" xmlns="http://www.w3.org/2000/svg">
<rect x="-0.5" y="0.5" width="29" height="29" rx="4.5" transform="matrix(-1 0 0 1 29 0)" stroke="white"/>
<path d="M15.0003 23.3333L17.0837 21.6666M15.0003 23.3333V15.8333V23.3333ZM15.0003 23.3333L12.917 21.6666L15.0003 23.3333Z" stroke="white" stroke-linecap="round" stroke-linejoin="round"/>
<path d="M9.19501 12.5974C8.40685 12.7957 7.71824 13.275 7.25855 13.9453C6.79887 14.6155 6.59974 15.4305 6.6986 16.2372C6.79745 17.0439 7.18748 17.7868 7.7954 18.3262C8.40332 18.8656 9.18728 19.1644 10 19.1666H10.8333" stroke="white" stroke-linecap="round" stroke-linejoin="round"/>
<path d="M18.1912 10.9483C17.9064 9.82044 17.2034 8.84309 16.2247 8.21435C15.246 7.58561 14.0648 7.35254 12.9206 7.56239C11.7764 7.77223 10.7548 8.40929 10.0629 9.34442C9.37105 10.2795 9.06061 11.4428 9.19456 12.5983C9.19456 12.5983 9.32206 13.3333 9.5829 13.75" stroke="white" stroke-linecap="round" stroke-linejoin="round"/>
<path d="M19.1663 19.1666C19.7547 19.1662 20.3363 19.0412 20.8729 18.7998C21.4095 18.5584 21.8888 18.2061 22.2794 17.7661C22.6701 17.3262 22.9631 16.8084 23.1392 16.247C23.3153 15.6856 23.3705 15.0933 23.3012 14.509C23.2318 13.9248 23.0396 13.3618 22.737 12.8572C22.4344 12.3526 22.0284 11.9178 21.5457 11.5814C21.063 11.245 20.5145 11.0147 19.9363 10.9056C19.3582 10.7964 18.7635 10.811 18.1913 10.9483L17.083 11.2499" stroke="white" stroke-linecap="round" stroke-linejoin="round"/>
</svg>
