<svg width="28" height="28" viewBox="0 0 28 28" fill="none" xmlns="http://www.w3.org/2000/svg">
<g clip-path="url(#clip0_1287_167)">
<path d="M14.4829 0.482784C12.2227 0.481297 9.99835 1.04752 8.01395 2.12947C7.91159 2.18569 7.86416 2.30711 7.9013 2.41782C7.93844 2.52853 8.0495 2.59678 8.16505 2.57989C11.3681 2.03185 14.6542 2.85175 17.2244 4.84026C19.7945 6.82876 21.4133 9.80371 21.6871 13.0417C21.9723 16.2336 20.9151 19.4001 18.7694 21.7804C16.6238 24.1607 13.5837 25.5397 10.3795 25.5862C9.63798 25.6002 8.8968 25.5451 8.16553 25.4216C8.04957 25.4029 7.937 25.4704 7.89886 25.5815C7.86071 25.6926 7.90807 25.815 8.01105 25.8715C13.8427 29.0587 21.126 27.5339 25.1895 22.2752C29.2531 17.0165 28.8912 9.58411 24.336 4.74506C21.7899 2.01226 18.218 0.467135 14.4829 0.482784Z" fill="#888077"/>
<path d="M8.68915 10.6207C10.35 10.6056 11.993 10.9643 13.4965 11.6702C12.2022 10.6207 10.5178 9.65521 8.68915 9.65521C6.86046 9.65521 5.17611 10.6207 3.88184 11.6702C5.38527 10.9643 7.02828 10.6056 8.68915 10.6207Z" fill="#888077"/>
<path d="M8.68951 18.3448C11.8072 18.3448 14.5106 15.5448 15.5553 14.3041C14.6557 13.3753 13.5537 12.6667 12.3353 12.2336C12.8946 13.8335 12.3453 15.6111 10.9811 16.6167C9.61681 17.6224 7.7563 17.621 6.3935 16.6134C5.03069 15.6058 4.48407 13.8274 5.04565 12.2283C3.82405 12.6589 2.72039 13.3699 1.82324 14.3041C2.86793 15.5448 5.57186 18.3448 8.68951 18.3448Z" fill="#888077"/>
<path d="M6.3414 11.8421C5.98333 12.3271 5.79102 12.9145 5.79298 13.5173C5.79298 15.117 7.08981 16.4138 8.68954 16.4138C10.2893 16.4138 11.5861 15.117 11.5861 13.5173C11.588 12.9157 11.3964 12.3294 11.0396 11.845C9.49254 11.501 7.88889 11.5 6.3414 11.8421ZM10.1378 14C10.1378 14.7999 9.4894 15.4483 8.68954 15.4483C7.88967 15.4483 7.24126 14.7999 7.24126 14C7.24126 13.2002 7.88967 12.5518 8.68954 12.5518C9.4894 12.5518 10.1378 13.2002 10.1378 14Z" fill="#888077"/>
<path d="M9.17255 7.24137V5.31033C9.17255 5.04371 8.95641 4.82758 8.68979 4.82758C8.42317 4.82758 8.20703 5.04371 8.20703 5.31033V7.24137C8.20703 7.50799 8.42317 7.72413 8.68979 7.72413C8.95641 7.72413 9.17255 7.50799 9.17255 7.24137Z" fill="#888077"/>
<path d="M4.85199 6.42843L5.33474 7.87671C5.38925 8.04056 5.52702 8.16289 5.69617 8.19761C5.86532 8.23234 6.04014 8.17418 6.15479 8.04506C6.26944 7.91593 6.30649 7.73545 6.25198 7.5716L5.76923 6.12333C5.68497 5.87004 5.41134 5.733 5.15805 5.81726C4.90477 5.90151 4.76773 6.17514 4.85199 6.42843Z" fill="#888077"/>
<path d="M2.07299 7.86559C1.88453 8.05411 1.88453 8.35969 2.07299 8.54821L3.0385 9.51373C3.15971 9.63922 3.3392 9.68955 3.50799 9.64537C3.67678 9.60119 3.80859 9.46938 3.85277 9.30059C3.89695 9.13181 3.84662 8.95231 3.72112 8.83111L2.75561 7.86559C2.56709 7.67713 2.2615 7.67713 2.07299 7.86559Z" fill="#888077"/>
<path d="M0.824154 10.2794C0.702945 10.1539 0.523454 10.1036 0.354667 10.1478C0.185881 10.1919 0.0540661 10.3238 0.00988621 10.4925C-0.0342937 10.6613 0.0160368 10.8408 0.141533 10.962L0.624292 11.4448C0.7455 11.5703 0.924991 11.6206 1.09378 11.5764C1.26256 11.5323 1.39438 11.4004 1.43856 11.2317C1.48274 11.0629 1.43241 10.8834 1.30691 10.7622L0.824154 10.2794Z" fill="#888077"/>
<path d="M11.5864 8.20691C11.7943 8.20696 11.9788 8.07393 12.0445 7.8767L12.5273 6.42843C12.6115 6.17514 12.4745 5.90151 12.2212 5.81726C11.9679 5.733 11.6943 5.87004 11.61 6.12333L11.1273 7.5716C11.0782 7.71899 11.103 7.881 11.194 8.00691C11.285 8.13283 11.431 8.20726 11.5864 8.20691Z" fill="#888077"/>
<path d="M14.3408 9.51375L15.3063 8.54824C15.4892 8.35881 15.4866 8.05772 15.3004 7.8715C15.1142 7.68528 14.8131 7.68267 14.6236 7.86562L13.6581 8.83113C13.5326 8.95234 13.4823 9.13183 13.5265 9.30062C13.5707 9.46941 13.7025 9.60122 13.8713 9.6454C14.0401 9.68958 14.2195 9.63925 14.3408 9.51375Z" fill="#888077"/>
<path d="M16.4133 11.5862C16.5414 11.5862 16.6641 11.5353 16.7546 11.4448L17.2374 10.962C17.4204 10.7726 17.4177 10.4715 17.2315 10.2853C17.0453 10.099 16.7442 10.0964 16.5548 10.2794L16.072 10.7621C15.934 10.9002 15.8927 11.1078 15.9674 11.2882C16.0421 11.4685 16.2181 11.5862 16.4133 11.5862Z" fill="#888077"/>
<path d="M8.20703 20.7586V22.6897C8.20703 22.9563 8.42317 23.1724 8.68979 23.1724C8.95641 23.1724 9.17255 22.9563 9.17255 22.6897V20.7586C9.17255 20.492 8.95641 20.2759 8.68979 20.2759C8.42317 20.2759 8.20703 20.492 8.20703 20.7586Z" fill="#888077"/>
<path d="M5.94531 19.8182C5.69242 19.7339 5.41903 19.8704 5.33462 20.1233L4.85186 21.5716C4.79736 21.7354 4.83441 21.9159 4.94906 22.0451C5.06371 22.1742 5.23853 22.2323 5.40768 22.1976C5.57683 22.1629 5.7146 22.0406 5.7691 21.8767L6.25186 20.4284C6.29216 20.3069 6.2825 20.1743 6.22501 20.0598C6.16751 19.9454 6.0669 19.8585 5.94531 19.8182Z" fill="#888077"/>
<path d="M3.03771 18.4863L2.0722 19.4518C1.9467 19.573 1.89637 19.7525 1.94055 19.9213C1.98473 20.0901 2.11654 20.2219 2.28533 20.2661C2.45412 20.3103 2.63361 20.2599 2.75482 20.1344L3.72033 19.1689C3.90329 18.9795 3.90067 18.6784 3.71445 18.4922C3.52824 18.3059 3.22714 18.3033 3.03771 18.4863Z" fill="#888077"/>
<path d="M0.624292 16.5553L0.141533 17.038C0.0160368 17.1592 -0.0342937 17.3387 0.00988621 17.5075C0.0540661 17.6763 0.185881 17.8081 0.354667 17.8523C0.523454 17.8965 0.702945 17.8461 0.824154 17.7206L1.30691 17.2379C1.48986 17.0485 1.48725 16.7474 1.30103 16.5611C1.11482 16.3749 0.813716 16.3723 0.624292 16.5553Z" fill="#888077"/>
<path d="M11.4338 19.8183C11.181 19.9025 11.0443 20.1756 11.1283 20.4285L11.611 21.8767C11.6953 22.13 11.9689 22.2671 12.2222 22.1828C12.4755 22.0986 12.6125 21.8249 12.5283 21.5716L12.0455 20.1234C12.005 20.0017 11.9177 19.9012 11.803 19.8439C11.6882 19.7867 11.5554 19.7774 11.4338 19.8183Z" fill="#888077"/>
<path d="M13.6589 18.4863C13.4705 18.6748 13.4705 18.9804 13.6589 19.1689L14.6244 20.1345C14.8139 20.3174 15.115 20.3148 15.3012 20.1286C15.4874 19.9424 15.49 19.6413 15.3071 19.4518L14.3415 18.4863C14.153 18.2979 13.8474 18.2979 13.6589 18.4863Z" fill="#888077"/>
<path d="M16.072 17.2379L16.5548 17.7206C16.7442 17.9036 17.0453 17.901 17.2315 17.7148C17.4178 17.5285 17.4204 17.2274 17.2374 17.038L16.7547 16.5553C16.5652 16.3723 16.2641 16.3749 16.0779 16.5611C15.8917 16.7474 15.8891 17.0485 16.072 17.2379Z" fill="#888077"/>
</g>
<defs>
<clipPath id="clip0_1287_167">
<rect width="28" height="28" fill="white"/>
</clipPath>
</defs>
</svg>
