<svg width="40" height="40" viewBox="0 0 40 40" fill="none" xmlns="http://www.w3.org/2000/svg">
<path d="M39.29 20.2075C39.29 9.82 30.75 1.3975 20.2125 1.3975C19.1025 1.3975 18.0125 1.4925 16.95 1.6725C15.245 0.615 13.2275 0 11.065 0C4.9525 0 0 4.8825 0 10.91C0 12.9225 0.555 14.805 1.52 16.4275C1.2675 17.6475 1.1325 18.915 1.1325 20.2075C1.1325 30.5975 9.675 39.02 20.21 39.02C21.405 39.02 22.57 38.91 23.705 38.705C25.265 39.53 27.0425 40 28.9375 40C35.0475 40 40 35.115 40 29.0925C40 27.3525 39.585 25.7075 38.85 24.2475C39.14 22.9425 39.29 21.595 39.29 20.2075Z" fill="#03A9F4"/>
<path d="M29.9968 29.1975C29.1143 30.43 27.8118 31.405 26.1193 32.095C24.4468 32.78 22.4443 33.1325 20.1593 33.1325C17.4193 33.1325 15.1218 32.6575 13.3268 31.7175C12.0443 31.035 10.9893 30.1125 10.1868 28.9675C9.3743 27.8175 8.9668 26.675 8.9668 25.5675C8.9668 24.8825 9.2343 24.2825 9.7618 23.795C10.2843 23.3075 10.9543 23.065 11.7543 23.065C12.4093 23.065 12.9743 23.2575 13.4343 23.64C13.8718 24.01 14.2493 24.555 14.5518 25.2525C14.8893 26.0175 15.2568 26.6625 15.6443 27.165C16.0218 27.6575 16.5593 28.0675 17.2468 28.39C17.9393 28.71 18.8718 28.8775 20.0168 28.8775C21.5943 28.8775 22.8893 28.5425 23.8593 27.89C24.8118 27.2525 25.2718 26.4825 25.2718 25.5425C25.2718 24.8025 25.0293 24.2175 24.5368 23.76C24.0168 23.28 23.3318 22.9075 22.5018 22.65C21.6343 22.385 20.4568 22.095 19.0018 21.795C17.0193 21.3775 15.3368 20.885 14.0018 20.32C12.6343 19.745 11.5293 18.95 10.7243 17.9575C9.9043 16.9425 9.4893 15.675 9.4893 14.185C9.4893 12.765 9.9243 11.485 10.7843 10.38C11.6368 9.28248 12.8818 8.42498 14.4893 7.84248C16.0718 7.26498 17.9543 6.97498 20.0868 6.97498C21.7893 6.97498 23.2868 7.16998 24.5393 7.55498C25.7968 7.93998 26.8568 8.45998 27.6893 9.10248C28.5293 9.75248 29.1543 10.44 29.5443 11.16C29.9393 11.885 30.1418 12.6075 30.1418 13.305C30.1418 13.9775 29.8793 14.59 29.3593 15.12C28.8343 15.655 28.1743 15.925 27.3993 15.925C26.6943 15.925 26.1393 15.7525 25.7568 15.42C25.3993 15.1075 25.0268 14.62 24.6168 13.925C24.1418 13.035 23.5643 12.3325 22.9043 11.835C22.2618 11.3525 21.1918 11.1125 19.7168 11.1125C18.3518 11.1125 17.2368 11.3825 16.4118 11.9175C15.6168 12.43 15.2293 13.02 15.2293 13.72C15.2293 14.1475 15.3543 14.505 15.6118 14.8125C15.8818 15.1425 16.2643 15.425 16.7493 15.665C17.2493 15.9125 17.7668 16.1125 18.2843 16.2525C18.8143 16.3975 19.7018 16.615 20.9243 16.8925C22.4693 17.2175 23.8868 17.585 25.1418 17.9825C26.4143 18.38 27.5093 18.8725 28.4093 19.45C29.3218 20.0375 30.0443 20.7875 30.5593 21.6875C31.0743 22.595 31.3343 23.7075 31.3343 25.0025C31.3318 26.55 30.8818 27.9625 29.9968 29.1975Z" fill="#FAFAFA"/>
</svg>
