<svg width="163" height="31" viewBox="0 0 163 31" fill="none" xmlns="http://www.w3.org/2000/svg">
<path d="M11.304 11.4545C11.2114 10.5234 10.8003 9.78291 10.0707 9.23295C9.34103 8.683 8.42353 8.40803 7.31818 8.40803C6.53954 8.40803 5.85346 8.54143 5.25994 8.80824C4.67188 9.07505 4.20904 9.44531 3.87145 9.91903C3.5393 10.3873 3.37322 10.9209 3.37322 11.5199C3.37322 11.9609 3.46851 12.3475 3.65909 12.6797C3.84967 13.0118 4.10559 13.2977 4.42685 13.5373C4.75355 13.7714 5.11293 13.9729 5.50497 14.1417C5.90246 14.3105 6.30268 14.4521 6.70561 14.5664L8.46982 15.0728C9.00343 15.2198 9.53705 15.4077 10.0707 15.6364C10.6043 15.8651 11.0916 16.1536 11.5327 16.5021C11.9792 16.8452 12.3358 17.2672 12.6026 17.7681C12.8749 18.2636 13.011 18.8598 13.011 19.5568C13.011 20.4498 12.7796 21.253 12.3168 21.9663C11.8539 22.6796 11.1896 23.2459 10.3239 23.6651C9.4581 24.079 8.42081 24.2859 7.212 24.2859C6.07398 24.2859 5.0857 24.098 4.24716 23.7223C3.40862 23.3411 2.74976 22.8157 2.2706 22.146C1.79143 21.4762 1.5219 20.7003 1.462 19.8182H3.03018C3.08464 20.477 3.30244 21.0352 3.68359 21.4925C4.06475 21.9499 4.56025 22.2984 5.1701 22.538C5.77995 22.7721 6.46058 22.8892 7.212 22.8892C8.0451 22.8892 8.78563 22.7504 9.43359 22.4727C10.087 22.1895 10.5988 21.7975 10.9691 21.2965C11.3448 20.7901 11.5327 20.2021 11.5327 19.5323C11.5327 18.966 11.3857 18.4923 11.0916 18.1112C10.7976 17.7246 10.3865 17.4006 9.85831 17.1392C9.33558 16.8778 8.72846 16.6464 8.03693 16.445L6.03587 15.8569C4.7236 15.4648 3.70537 14.9231 2.98118 14.2315C2.25698 13.54 1.89489 12.6579 1.89489 11.5852C1.89489 10.6868 2.13447 9.89725 2.61364 9.21662C3.09825 8.53054 3.75166 7.99692 4.57386 7.61577C5.40152 7.22917 6.3299 7.03587 7.35902 7.03587C8.39903 7.03587 9.31925 7.22644 10.1197 7.6076C10.9201 7.98875 11.5545 8.5142 12.0227 9.18395C12.4964 9.84825 12.7496 10.6051 12.7823 11.4545H11.304ZM21.4563 24.2614C20.2856 24.2614 19.2728 23.9891 18.418 23.4446C17.5631 22.8946 16.9015 22.1351 16.4332 21.1658C15.9704 20.1912 15.739 19.0695 15.739 17.8008C15.739 16.5375 15.9704 15.4158 16.4332 14.4357C16.9015 13.4502 17.5468 12.6797 18.369 12.1243C19.1966 11.5634 20.1522 11.283 21.2358 11.283C21.9164 11.283 22.5726 11.4083 23.2042 11.6587C23.8358 11.9038 24.4021 12.2822 24.9031 12.794C25.4094 13.3004 25.8097 13.9402 26.1037 14.7134C26.3977 15.4812 26.5447 16.3905 26.5447 17.4414V18.1602H16.7436V16.8778H25.0582C25.0582 16.072 24.8949 15.3478 24.5682 14.7053C24.2469 14.0573 23.7977 13.5455 23.2205 13.1697C22.6488 12.794 21.9872 12.6062 21.2358 12.6062C20.4408 12.6062 19.7411 12.8185 19.1367 13.2433C18.5323 13.668 18.0586 14.2288 17.7156 14.9258C17.378 15.6228 17.2064 16.3851 17.201 17.2127V17.9805C17.201 18.9769 17.3725 19.8481 17.7156 20.5941C18.064 21.3346 18.5568 21.9091 19.1939 22.3175C19.831 22.7259 20.5851 22.93 21.4563 22.93C22.0498 22.93 22.5698 22.8375 23.0163 22.6523C23.4683 22.4672 23.8467 22.2195 24.1516 21.9091C24.462 21.5933 24.6961 21.2475 24.854 20.8718L26.2344 21.321C26.0438 21.8492 25.7307 22.3365 25.2951 22.783C24.8649 23.2295 24.3259 23.5889 23.6779 23.8612C23.0354 24.128 22.2949 24.2614 21.4563 24.2614ZM34.8206 24.2614C33.6499 24.2614 32.6371 23.9891 31.7822 23.4446C30.9273 22.8946 30.2658 22.1351 29.7975 21.1658C29.3347 20.1912 29.1032 19.0695 29.1032 17.8008C29.1032 16.5375 29.3347 15.4158 29.7975 14.4357C30.2658 13.4502 30.911 12.6797 31.7332 12.1243C32.5609 11.5634 33.5165 11.283 34.6001 11.283C35.2807 11.283 35.9368 11.4083 36.5684 11.6587C37.2001 11.9038 37.7664 12.2822 38.2673 12.794C38.7737 13.3004 39.1739 13.9402 39.468 14.7134C39.762 15.4812 39.909 16.3905 39.909 17.4414V18.1602H30.1079V16.8778H38.4225C38.4225 16.072 38.2591 15.3478 37.9324 14.7053C37.6112 14.0573 37.162 13.5455 36.5848 13.1697C36.0131 12.794 35.3515 12.6062 34.6001 12.6062C33.8051 12.6062 33.1054 12.8185 32.501 13.2433C31.8966 13.668 31.4229 14.2288 31.0798 14.9258C30.7422 15.6228 30.5707 16.3851 30.5653 17.2127V17.9805C30.5653 18.9769 30.7368 19.8481 31.0798 20.5941C31.4283 21.3346 31.9211 21.9091 32.5581 22.3175C33.1952 22.7259 33.9494 22.93 34.8206 22.93C35.4141 22.93 35.9341 22.8375 36.3806 22.6523C36.8325 22.4672 37.211 22.2195 37.5159 21.9091C37.8263 21.5933 38.0604 21.2475 38.2183 20.8718L39.5986 21.321C39.4081 21.8492 39.095 22.3365 38.6594 22.783C38.2292 23.2295 37.6901 23.5889 37.0422 23.8612C36.3997 24.128 35.6591 24.2614 34.8206 24.2614ZM49.5815 24V11.4545H50.9945V13.3821H51.1252C51.3757 12.7341 51.7922 12.225 52.3748 11.8548C52.9629 11.479 53.668 11.2912 54.4902 11.2912C55.356 11.2912 56.0666 11.4954 56.622 11.9038C57.1828 12.3067 57.6021 12.8621 57.8798 13.57H57.986C58.2691 12.873 58.7292 12.3203 59.3663 11.9119C60.0088 11.4981 60.7875 11.2912 61.7022 11.2912C62.8675 11.2912 63.7877 11.6587 64.4629 12.3938C65.1381 13.1235 65.4757 14.1907 65.4757 15.5955V24H64.0218V15.5955C64.0218 14.6045 63.7686 13.8613 63.2623 13.3658C62.7559 12.8703 62.0888 12.6225 61.2612 12.6225C60.3029 12.6225 59.565 12.9165 59.0478 13.5046C58.5305 14.0927 58.2718 14.8387 58.2718 15.7425V24H56.7853V15.4648C56.7853 14.6154 56.5485 13.9293 56.0748 13.4066C55.601 12.8839 54.934 12.6225 54.0737 12.6225C53.4965 12.6225 52.9765 12.7641 52.5137 13.0472C52.0563 13.3304 51.6942 13.7251 51.4274 14.2315C51.166 14.7325 51.0353 15.3097 51.0353 15.9631V24H49.5815ZM74.2007 24.2614C73.1172 24.2614 72.1588 23.9864 71.3257 23.4364C70.4981 22.8865 69.8501 22.1269 69.3818 21.1577C68.9136 20.183 68.6794 19.0586 68.6794 17.7844C68.6794 16.4994 68.9136 15.3696 69.3818 14.3949C69.8501 13.4148 70.4981 12.6525 71.3257 12.108C72.1588 11.558 73.1172 11.283 74.2007 11.283C75.2843 11.283 76.2399 11.558 77.0676 12.108C77.8952 12.6579 78.5432 13.4202 79.0115 14.3949C79.4852 15.3696 79.722 16.4994 79.722 17.7844C79.722 19.0586 79.4879 20.183 79.0196 21.1577C78.5513 22.1269 77.9007 22.8865 77.0676 23.4364C76.2399 23.9864 75.2843 24.2614 74.2007 24.2614ZM74.2007 22.93C75.0719 22.93 75.8097 22.6959 76.4142 22.2276C77.0186 21.7594 77.4759 21.1359 77.7863 20.3572C78.1021 19.5786 78.26 18.721 78.26 17.7844C78.26 16.8479 78.1021 15.9876 77.7863 15.2035C77.4759 14.4194 77.0186 13.7905 76.4142 13.3168C75.8097 12.843 75.0719 12.6062 74.2007 12.6062C73.335 12.6062 72.5972 12.843 71.9873 13.3168C71.3829 13.7905 70.9228 14.4194 70.607 15.2035C70.2966 15.9876 70.1414 16.8479 70.1414 17.7844C70.1414 18.721 70.2966 19.5786 70.607 20.3572C70.9228 21.1359 71.3829 21.7594 71.9873 22.2276C72.5917 22.6959 73.3295 22.93 74.2007 22.93ZM82.9135 24V11.4545H84.3265V13.3821H84.4327C84.6832 12.7505 85.1188 12.2414 85.7395 11.8548C86.3657 11.4627 87.0736 11.2667 87.8631 11.2667C87.9829 11.2667 88.1163 11.2694 88.2633 11.2749C88.4103 11.2803 88.5328 11.2857 88.6309 11.2912V12.7695C88.5655 12.7586 88.4512 12.7423 88.2878 12.7205C88.1245 12.6987 87.9475 12.6879 87.7569 12.6879C87.1035 12.6879 86.5209 12.8267 86.0091 13.1044C85.5027 13.3767 85.1025 13.7551 84.8084 14.2397C84.5144 14.7243 84.3674 15.277 84.3674 15.8977V24H82.9135ZM95.802 24.2614C94.6313 24.2614 93.6185 23.9891 92.7637 23.4446C91.9088 22.8946 91.2472 22.1351 90.7789 21.1658C90.3161 20.1912 90.0847 19.0695 90.0847 17.8008C90.0847 16.5375 90.3161 15.4158 90.7789 14.4357C91.2472 13.4502 91.8925 12.6797 92.7147 12.1243C93.5423 11.5634 94.4979 11.283 95.5815 11.283C96.2621 11.283 96.9183 11.4083 97.5499 11.6587C98.1815 11.9038 98.7478 12.2822 99.2488 12.794C99.7551 13.3004 100.155 13.9402 100.449 14.7134C100.743 15.4812 100.89 16.3905 100.89 17.4414V18.1602H91.0893V16.8778H99.4039C99.4039 16.072 99.2406 15.3478 98.9139 14.7053C98.5926 14.0573 98.1434 13.5455 97.5662 13.1697C96.9945 12.794 96.3329 12.6062 95.5815 12.6062C94.7865 12.6062 94.0868 12.8185 93.4824 13.2433C92.878 13.668 92.4043 14.2288 92.0613 14.9258C91.7237 15.6228 91.5521 16.3851 91.5467 17.2127V17.9805C91.5467 18.9769 91.7182 19.8481 92.0613 20.5941C92.4097 21.3346 92.9025 21.9091 93.5396 22.3175C94.1767 22.7259 94.9308 22.93 95.802 22.93C96.3955 22.93 96.9155 22.8375 97.362 22.6523C97.814 22.4672 98.1924 22.2195 98.4973 21.9091C98.8077 21.5933 99.0418 21.2475 99.1998 20.8718L100.58 21.321C100.39 21.8492 100.076 22.3365 99.6408 22.783C99.2106 23.2295 98.6716 23.5889 98.0236 23.8612C97.3811 24.128 96.6406 24.2614 95.802 24.2614Z" fill="#30A7D9"/>
<path d="M159.061 19.0607C159.646 18.4749 159.646 17.5251 159.061 16.9393L149.515 7.3934C148.929 6.80761 147.979 6.80761 147.393 7.3934C146.808 7.97919 146.808 8.92893 147.393 9.51472L155.879 18L147.393 26.4853C146.808 27.0711 146.808 28.0208 147.393 28.6066C147.979 29.1924 148.929 29.1924 149.515 28.6066L159.061 19.0607ZM128 19.5L158 19.5V16.5L128 16.5V19.5Z" fill="#30A7D9"/>
</svg>
