<svg width="33" height="41" viewBox="0 0 33 41" fill="none" xmlns="http://www.w3.org/2000/svg">
<path d="M27.4604 29.8122L19.2396 38.7639C18.8801 39.1558 18.4532 39.4666 17.9833 39.6787C17.5134 39.8908 17.0097 40 16.501 40C15.9923 40 15.4886 39.8908 15.0187 39.6787C14.5487 39.4666 14.1218 39.1558 13.7623 38.7639L5.53957 29.8122C3.37193 27.4518 1.89578 24.4444 1.29778 21.1704C0.699771 17.8964 1.00677 14.5029 2.17995 11.4189C3.35313 8.33487 5.33981 5.69893 7.88875 3.84439C10.4377 1.98985 13.4344 1 16.5 1C19.5656 1 22.5623 1.98985 25.1113 3.84439C27.6602 5.69893 29.6469 8.33487 30.82 11.4189C31.9932 14.5029 32.3002 17.8964 31.7022 21.1704C31.1042 24.4444 29.6281 27.4518 27.4604 29.8122Z" fill="#EA2727" stroke="white" stroke-linecap="round" stroke-linejoin="round"/>
<path d="M22.3125 17.8769C22.3125 19.5555 21.7001 21.1653 20.6101 22.3523C19.52 23.5393 18.0416 24.2061 16.5 24.2061C14.9584 24.2061 13.48 23.5393 12.3899 22.3523C11.2999 21.1653 10.6875 19.5555 10.6875 17.8769C10.6875 16.1982 11.2999 14.5884 12.3899 13.4014C13.48 12.2144 14.9584 11.5476 16.5 11.5476C18.0416 11.5476 19.52 12.2144 20.6101 13.4014C21.7001 14.5884 22.3125 16.1982 22.3125 17.8769Z" fill="white" stroke="white" stroke-linecap="round" stroke-linejoin="round"/>
</svg>
